<?xml version="1.0" encoding="UTF-8" standalone="no"?><svg xmlns="http://www.w3.org/2000/svg" viewBox="0 0 456.98 203.16"><defs><style>.cls-1{fill:#5b5959;}.cls-2{fill:#02609c;}.cls-3{fill:#5c5a5a;}.cls-4{fill:#b5b6b6;}</style></defs><g id="Layer_2" data-name="Layer 2"><g id="Layer_1-2" data-name="Layer 1"><path class="cls-1" d="M106.78,0c21.11,10.27,29,35.68,17.37,56.91-5.28,9.64-11,19-12.89,30.07-3.26,19.51-1.41,38.13,9.62,55.14,9.86,15.22,11.47,31.15,2.8,47.21-9.88,18.32-30.62,18.46-40.72.27-7.92-14.25-7.93-29.08.35-43.3,5.64-9.67,11.23-19.22,13-30.52,2.87-18.72.78-36.48-9.9-52.61-9-13.52-11-27.88-5.8-43.3C83.73,10.51,90.26,4.38,98.79,0Zm16.28,35.47a29,29,0,0,0-4.67-16.54c-7.73-11.66-22.09-11.68-29.48.22C82.63,29.29,82.43,40,88.22,50.4c7.44,13.35,22.88,13.36,30.79.27A29.48,29.48,0,0,0,123.06,35.47Z"/><path class="cls-2" d="M55.63,98C35.75,95.75,18.5,83.79,6.35,64.17,1.75,56.74-1.31,48.6.56,39.56,3,27.87,12.88,21.76,26.83,23.1,50.08,25.35,75,46,81.4,68.45,86.32,85.56,76.89,98.07,55.63,98Z"/><path class="cls-3" d="M288.06,104.81c-7.16,0-14.32.1-21.48,0-2.91-.06-3.66.8-3.24,3.75,1.24,8.77,6.33,14.95,13.84,16.28,10,1.76,18.16-2,22.25-10.29.73-1.49,1.31-3.06,2.18-4.47,1.66-2.72,4-4,7.18-2.61s4.16,3.74,3.38,6.89c-2.71,10.85-9.22,18.44-20,21.62-22.69,6.7-46.87-5.63-43.88-40.35,1-12.16,6.1-22.89,17.47-29.23C286.15,55,311.87,68.74,313.7,91.87c1,12.94,1,12.94-11.65,12.94ZM281.2,93.09c4.67,0,9.35-.26,14,.08,4.17.3,4.23-1.69,3.48-4.73a17.3,17.3,0,0,0-17.75-13.18c-8.61.46-15.85,6.82-17.11,14.86-.33,2.13,0,3.06,2.41,3C271.21,93,276.21,93.08,281.2,93.09Z"/><path class="cls-2" d="M89,116.4c.18,4.25-1.22,8.67-3.22,12.9-8,17-20.38,29.69-38.06,36.81a10.23,10.23,0,0,1-1.38.56c-6.4,1.55-13,3-18.44-2.07s-5.23-11.68-3.28-18.1c6.62-21.77,21-36.41,42.05-44.66a22.49,22.49,0,0,1,4.86-1C82.78,99.09,89.19,104.64,89,116.4Z"/><path class="cls-1" d="M457,100.39c0,9.49,0,19,0,28.47,0,6.28-2.35,9-7.38,9.14-5.28.1-7.92-2.84-8-9.14-.09-6.49-.12-13,0-19.47.06-2.54-.64-3.53-3.34-3.49q-14.24.21-28.48,0c-2.59,0-3.51.77-3.45,3.39.15,6.49.1,13,0,19.48-.06,6-2.68,9.1-7.52,9.1s-7.62-3.06-7.65-9q-.15-28.45-.1-56.92c0-5.61,2.67-8.71,7.28-8.86s7.88,3.26,8,8.84c.1,5.33.15,10.66,0,16-.1,2.86.48,4.17,3.78,4.09q14-.33,28,0c3.26.08,3.9-1.13,3.79-4-.19-5.49-.11-11,0-16.48S444.46,63,449.35,63s7.56,2.83,7.6,8.41C457,81.08,457,90.74,457,100.39Z"/><path class="cls-1" d="M351.66,62.75c18.81-.19,28.69,7.34,32.44,22.33,1.49,6,.39,9-3.74,10.35-3.87,1.25-7-.76-8.4-6.93-2.79-12.08-15-15.25-23.89-12.31A16.47,16.47,0,0,0,337.41,86a35.8,35.8,0,0,0,.68,29.08c3.44,7.48,9.24,10.38,18,9.69,7.86-.63,13.17-5,15.48-12.72a38,38,0,0,1,2.09-6.09,5.46,5.46,0,0,1,6.62-3.17c3.23.81,4.42,3.2,4.57,6.32.57,11.79-8.38,23.84-19.95,26.83-24.93,6.43-45.45-9.13-45.78-34.86a48.09,48.09,0,0,1,3.38-19.54C328.51,67.26,340.49,63,351.66,62.75Z"/><path class="cls-1" d="M212.45,63h30c3.1,0,6,.49,8,3.22,3.61,5.07.56,11.18-6.23,11.72a168.86,168.86,0,0,1-19,.15C221.89,78,221,79,221,82.32c.15,15.63.13,31.26,0,46.89-.05,7.09-5,10.79-11.57,9-4.54-1.24-5.76-4.51-5.75-8.72,0-15.47-.1-30.93.1-46.4,0-3.74-.68-5.35-4.84-5.06-5.63.38-11.31.19-17,.06s-9-2.93-9.08-7.23c-.11-4.54,3.32-7.7,9.09-7.8,10.14-.16,20.29,0,30.44,0Z"/><path class="cls-4" d="M168.65,98.67a17.8,17.8,0,0,1-17.29,17.18c-9.21,0-18-8.64-17.25-17.69.82-10.54,9.52-17,17.85-16.43C161.35,82.35,168.76,89.39,168.65,98.67Z"/></g></g></svg>